<?xml version="1.0" encoding="utf-8"?>
<!-- Generator: Adobe Illustrator 16.0.0, SVG Export Plug-In . SVG Version: 6.00 Build 0)  -->
<!DOCTYPE svg PUBLIC "-//W3C//DTD SVG 1.1//EN" "http://www.w3.org/Graphics/SVG/1.1/DTD/svg11.dtd">
<svg version="1.1" id="Layer_1" xmlns="http://www.w3.org/2000/svg" xmlns:xlink="http://www.w3.org/1999/xlink" x="0px" y="0px"
	 width="400px" height="300px" viewBox="0 0 400 300" enable-background="new 0 0 400 300" xml:space="preserve">
<circle fill="none" cx="114.372" cy="150.842" r="26.699"/>
<path fill="#74D0F0" d="M139.678,79.033c0-23.087-9.956-41.802-22.24-41.802c-12.283,0-22.24,18.715-22.24,41.802
	c0,23.084,22.24,41.8,22.24,41.8S139.678,102.117,139.678,79.033z"/>
<path fill="#74D0F0" d="M192.084,128.775c16.322-16.324,22.516-36.599,13.83-45.285c-8.688-8.685-28.959-2.493-45.285,13.832
	c-16.323,16.323-13.83,45.283-13.83,45.283S175.758,145.098,192.084,128.775z"/>
<path fill="#74D0F0" d="M160.463,197.084c16.323,16.322,36.6,22.516,45.285,13.83c8.684-8.684,2.493-28.959-13.832-45.285
	c-16.323-16.323-45.285-13.831-45.285-13.831S144.139,180.758,160.463,197.084z"/>
<path fill="#74D0F0" d="M75.222,96.261c-16.325-16.325-36.6-22.517-45.285-13.832c-8.687,8.686-2.492,28.962,13.831,45.285
	c16.324,16.325,45.285,13.831,45.285,13.831S91.545,112.584,75.222,96.261z"/>
<path fill="#74D0F0" d="M43.932,164.864c-16.324,16.325-22.517,36.601-13.831,45.286c8.686,8.687,28.961,2.492,45.283-13.831
	c16.326-16.326,13.833-45.285,13.833-45.285S60.256,148.541,43.932,164.864z"/>
<path fill="#74D0F0" d="M95.197,215.155c0,23.085,9.957,41.8,22.24,41.8c12.284,0,22.24-18.715,22.24-41.8
	c0-23.086-22.24-41.802-22.24-41.802S95.197,192.069,95.197,215.155z"/>
<g>
	<path fill="#ED1C24" d="M142.031,150.085h-26.163c-0.4-1.322-0.6-2.538-0.6-3.646c0-1.538,0.277-3.045,0.831-4.522h8.767
		c-0.616-3.415-2.538-5.122-5.768-5.122c-2.153,0-3.907,0.916-5.26,2.746c-1.354,1.831-2.03,4.176-2.03,7.037
		c0,2.984,0.653,5.398,1.961,7.244c1.307,1.846,3.022,2.769,5.145,2.769c1.723,0,3.384-0.861,4.983-2.584l9.829,11.813
		c-4.584,3.599-9.675,5.399-15.273,5.399c-6.829,0-12.566-2.292-17.211-6.875c-4.646-4.583-6.968-10.259-6.968-17.026
		c0-6.737,2.345-12.428,7.037-17.073c4.691-4.645,10.452-6.968,17.281-6.968c6.675,0,12.281,2.269,16.819,6.806
		c4.537,4.538,6.806,10.128,6.806,16.773C142.215,147.532,142.153,148.608,142.031,150.085z"/>
</g>
<path fill="#74D0F0" d="M226.975,421.838c0-33.142-14.293-60.007-31.927-60.007c-17.632,0-31.927,26.865-31.927,60.007
	c0,33.136,31.927,60.002,31.927,60.002S226.975,454.974,226.975,421.838z"/>
<path fill="#74D0F0" d="M302.201,493.241c23.432-23.433,32.322-52.536,19.853-65.004c-12.469-12.468-41.57-3.578-65.006,19.853
	c-23.431,23.435-19.853,65.006-19.853,65.006S278.766,516.673,302.201,493.241z"/>
<path fill="#74D0F0" d="M256.811,591.298c23.432,23.431,52.537,32.321,65.006,19.853c12.467-12.465,3.579-41.571-19.855-65.006
	c-23.432-23.431-65.006-19.854-65.006-19.854S233.376,567.861,256.811,591.298z"/>
<path fill="#74D0F0" d="M134.447,446.566c-23.435-23.434-52.538-32.32-65.006-19.855c-12.469,12.469-3.577,41.576,19.854,65.007
	c23.434,23.434,65.005,19.854,65.005,19.854S157.879,469.999,134.447,446.566z"/>
<path fill="#74D0F0" d="M89.532,545.047c-23.435,23.434-32.323,52.54-19.854,65.007c12.468,12.468,41.572,3.577,65.003-19.854
	c23.436-23.435,19.857-65.006,19.857-65.006S112.963,521.614,89.532,545.047z"/>
<path fill="#74D0F0" d="M163.121,617.24c0,33.137,14.295,60.002,31.927,60.002c17.634,0,31.927-26.865,31.927-60.002
	c0-33.143-31.927-60.009-31.927-60.009S163.121,584.098,163.121,617.24z"/>
<g>
	<path fill="#ED1C24" d="M230.352,523.831h-37.557c-0.574-1.898-0.861-3.644-0.861-5.232c0-2.208,0.397-4.372,1.192-6.491h12.585
		c-0.884-4.902-3.643-7.353-8.28-7.353c-3.091,0-5.608,1.314-7.551,3.94c-1.943,2.628-2.914,5.995-2.914,10.102
		c0,4.284,0.938,7.75,2.815,10.399c1.876,2.649,4.338,3.974,7.385,3.974c2.473,0,4.857-1.235,7.154-3.709l14.108,16.957
		c-6.58,5.166-13.888,7.75-21.924,7.75c-9.803,0-18.04-3.289-24.707-9.87c-6.668-6.579-10.002-14.726-10.002-24.441
		c0-9.67,3.367-17.839,10.101-24.508c6.733-6.667,15.003-10.002,24.806-10.002c9.582,0,17.629,3.258,24.143,9.771
		c6.513,6.514,9.77,14.539,9.77,24.077C230.616,520.166,230.527,521.711,230.352,523.831z"/>
</g>
<path fill="#74D0F0" d="M1711.227,102.07c0-33.142-14.293-60.007-31.926-60.007s-31.928,26.865-31.928,60.007
	c0,33.136,31.928,60.002,31.928,60.002S1711.227,135.206,1711.227,102.07z"/>
<path fill="#74D0F0" d="M1786.453,173.473c23.432-23.433,32.322-52.536,19.854-65.004s-41.57-3.578-65.006,19.853
	c-23.432,23.435-19.854,65.006-19.854,65.006S1763.018,196.905,1786.453,173.473z"/>
<path fill="#74D0F0" d="M1741.063,271.53c23.432,23.431,52.537,32.321,65.006,19.853c12.467-12.465,3.58-41.571-19.855-65.006
	c-23.432-23.431-65.006-19.854-65.006-19.854S1717.629,248.093,1741.063,271.53z"/>
<path fill="#74D0F0" d="M1618.699,126.798c-23.434-23.434-52.537-32.32-65.006-19.855c-12.469,12.469-3.576,41.576,19.855,65.007
	c23.434,23.434,65.004,19.854,65.004,19.854S1642.131,150.231,1618.699,126.798z"/>
<path fill="#74D0F0" d="M1573.785,225.279c-23.436,23.434-32.324,52.54-19.855,65.007c12.469,12.468,41.572,3.577,65.004-19.854
	c23.436-23.435,19.857-65.006,19.857-65.006S1597.215,201.846,1573.785,225.279z"/>
<path fill="#74D0F0" d="M1647.373,297.472c0,33.137,14.295,60.002,31.928,60.002s31.926-26.865,31.926-60.002
	c0-33.143-31.926-60.009-31.926-60.009S1647.373,264.33,1647.373,297.472z"/>
<g>
	<path fill="#ED1C24" d="M1714.604,204.063h-37.557c-0.574-1.898-0.86-3.644-0.86-5.232c0-2.208,0.397-4.372,1.192-6.491h12.585
		c-0.884-4.902-3.644-7.353-8.28-7.353c-3.091,0-5.607,1.314-7.551,3.94c-1.943,2.628-2.914,5.995-2.914,10.102
		c0,4.284,0.938,7.75,2.814,10.399s4.339,3.974,7.386,3.974c2.473,0,4.857-1.235,7.153-3.709l14.109,16.957
		c-6.58,5.166-13.889,7.75-21.925,7.75c-9.804,0-18.04-3.289-24.706-9.87c-6.669-6.579-10.002-14.726-10.002-24.441
		c0-9.67,3.366-17.839,10.101-24.508c6.733-6.667,15.003-10.002,24.806-10.002c9.582,0,17.63,3.258,24.144,9.771
		c6.513,6.514,9.771,14.539,9.771,24.077C1714.869,200.398,1714.779,201.943,1714.604,204.063z"/>
</g>
<g>
	<path fill="#74D0F0" d="M591.638,73.851c0-18.739-8.081-33.929-18.052-33.929c-9.97,0-18.052,15.19-18.052,33.929
		c0,18.736,18.052,33.926,18.052,33.926S591.638,92.587,591.638,73.851z"/>
	<path fill="#74D0F0" d="M634.172,114.224c13.248-13.25,18.276-29.705,11.225-36.755c-7.049-7.05-23.504-2.024-36.755,11.225
		c-13.249,13.25-11.225,36.755-11.225,36.755S620.921,127.473,634.172,114.224z"/>
	<path fill="#74D0F0" d="M608.507,169.667c13.249,13.249,29.706,18.275,36.755,11.226c7.049-7.048,2.024-23.505-11.226-36.756
		c-13.249-13.248-36.755-11.225-36.755-11.225S595.257,156.416,608.507,169.667z"/>
	<path fill="#74D0F0" d="M539.321,87.833c-13.25-13.25-29.706-18.275-36.755-11.227c-7.05,7.05-2.022,23.507,11.226,36.755
		c13.25,13.25,36.755,11.227,36.755,11.227S552.569,101.082,539.321,87.833z"/>
	<path fill="#74D0F0" d="M513.925,143.516c-13.25,13.25-18.276,29.708-11.226,36.756c7.049,7.049,23.506,2.022,36.753-11.226
		c13.251-13.25,11.229-36.755,11.229-36.755S527.173,130.266,513.925,143.516z"/>
	<path fill="#74D0F0" d="M555.534,184.335c0,18.736,8.083,33.926,18.052,33.926c9.971,0,18.052-15.19,18.052-33.926
		c0-18.74-18.052-33.93-18.052-33.93S555.534,165.596,555.534,184.335z"/>
	<g>
		<path fill="#ED1C24" d="M593.548,131.521h-21.235c-0.325-1.073-0.487-2.06-0.487-2.959c0-1.248,0.225-2.472,0.674-3.67h7.116
			c-0.5-2.771-2.06-4.157-4.682-4.157c-1.748,0-3.171,0.743-4.27,2.229c-1.099,1.486-1.648,3.389-1.648,5.711
			c0,2.422,0.53,4.382,1.592,5.88c1.061,1.498,2.453,2.247,4.176,2.247c1.398,0,2.747-0.699,4.045-2.098l7.977,9.588
			c-3.72,2.921-7.853,4.382-12.396,4.382c-5.542,0-10.2-1.86-13.969-5.58c-3.771-3.72-5.655-8.327-5.655-13.82
			c0-5.468,1.903-10.087,5.711-13.857c3.807-3.77,8.483-5.655,14.025-5.655c5.418,0,9.968,1.842,13.651,5.524
			c3.683,3.683,5.524,8.221,5.524,13.614C593.698,129.448,593.647,130.322,593.548,131.521z"/>
	</g>
</g>
<g>
	<path fill="#74D0F0" d="M910.307,73.851c0-18.739-8.082-33.929-18.053-33.929c-9.969,0-18.052,15.19-18.052,33.929
		c0,18.736,18.052,33.926,18.052,33.926S910.307,92.587,910.307,73.851z"/>
	<path fill="#74D0F0" d="M952.84,114.224c13.248-13.25,18.277-29.705,11.226-36.755c-7.05-7.05-23.504-2.024-36.755,11.225
		c-13.248,13.25-11.225,36.755-11.225,36.755S939.59,127.473,952.84,114.224z"/>
	<path fill="#74D0F0" d="M927.176,169.667c13.248,13.249,29.705,18.275,36.756,11.226c7.049-7.048,2.023-23.505-11.227-36.756
		c-13.249-13.248-36.756-11.225-36.756-11.225S913.926,156.416,927.176,169.667z"/>
	<path fill="#74D0F0" d="M857.989,87.833c-13.251-13.25-29.706-18.275-36.755-11.227c-7.051,7.05-2.023,23.507,11.226,36.755
		c13.25,13.25,36.755,11.227,36.755,11.227S871.238,101.082,857.989,87.833z"/>
	<path fill="#74D0F0" d="M832.594,143.516c-13.25,13.25-18.276,29.708-11.227,36.756c7.05,7.049,23.506,2.022,36.754-11.226
		c13.251-13.25,11.229-36.755,11.229-36.755S845.842,130.266,832.594,143.516z"/>
	<path fill="#74D0F0" d="M874.202,184.335c0,18.736,8.083,33.926,18.052,33.926c9.971,0,18.053-15.19,18.053-33.926
		c0-18.74-18.053-33.93-18.053-33.93S874.202,165.596,874.202,184.335z"/>
	<g>
		<path fill="#ED1C24" d="M912.217,131.521h-21.235c-0.325-1.073-0.487-2.06-0.487-2.959c0-1.248,0.225-2.472,0.675-3.67h7.116
			c-0.5-2.771-2.061-4.157-4.682-4.157c-1.748,0-3.172,0.743-4.27,2.229c-1.1,1.486-1.648,3.389-1.648,5.711
			c0,2.422,0.53,4.382,1.592,5.88c1.061,1.498,2.453,2.247,4.176,2.247c1.398,0,2.746-0.699,4.045-2.098l7.977,9.588
			c-3.72,2.921-7.852,4.382-12.396,4.382c-5.542,0-10.199-1.86-13.969-5.58c-3.771-3.72-5.655-8.327-5.655-13.82
			c0-5.468,1.903-10.087,5.712-13.857c3.807-3.77,8.482-5.655,14.025-5.655c5.418,0,9.968,1.842,13.65,5.524
			c3.684,3.683,5.524,8.221,5.524,13.614C912.366,129.448,912.316,130.322,912.217,131.521z"/>
	</g>
</g>
<g>
	<path fill="#74D0F0" d="M587.314,488.354c0-14.487-6.248-26.231-13.956-26.231c-7.708,0-13.957,11.744-13.957,26.231
		c0,14.485,13.957,26.229,13.957,26.229S587.314,502.84,587.314,488.354z"/>
	<path fill="#74D0F0" d="M620.198,519.567c10.242-10.243,14.129-22.966,8.678-28.415c-5.45-5.451-18.171-1.564-28.416,8.678
		c-10.243,10.244-8.678,28.416-8.678,28.416S609.954,529.811,620.198,519.567z"/>
	<path fill="#74D0F0" d="M600.356,562.431c10.243,10.243,22.966,14.129,28.416,8.679c5.45-5.449,1.565-18.172-8.679-28.416
		c-10.243-10.242-28.416-8.679-28.416-8.679S590.113,552.186,600.356,562.431z"/>
	<path fill="#74D0F0" d="M546.868,499.164c-10.244-10.244-22.966-14.129-28.416-8.68c-5.45,5.451-1.564,18.174,8.679,28.416
		c10.244,10.244,28.416,8.68,28.416,8.68S557.11,509.407,546.868,499.164z"/>
	<path fill="#74D0F0" d="M527.234,542.213c-10.244,10.244-14.129,22.967-8.679,28.417c5.45,5.45,18.172,1.563,28.415-8.679
		c10.244-10.244,8.681-28.416,8.681-28.416S537.476,531.97,527.234,542.213z"/>
	<path fill="#74D0F0" d="M559.402,573.771c0,14.484,6.249,26.229,13.957,26.229c7.708,0,13.956-11.744,13.956-26.229
		c0-14.488-13.956-26.232-13.956-26.232S559.402,559.283,559.402,573.771z"/>
	<g>
		<path fill="#ED1C24" d="M588.792,532.939h-16.417c-0.251-0.829-0.376-1.592-0.376-2.287c0-0.965,0.174-1.911,0.521-2.838h5.501
			c-0.386-2.143-1.592-3.214-3.619-3.214c-1.352,0-2.452,0.575-3.301,1.724c-0.85,1.148-1.274,2.62-1.274,4.415
			c0,1.872,0.41,3.388,1.23,4.546c0.82,1.158,1.896,1.737,3.229,1.737c1.081,0,2.123-0.54,3.127-1.621l6.167,7.412
			c-2.876,2.258-6.071,3.388-9.583,3.388c-4.286,0-7.886-1.438-10.8-4.314s-4.372-6.438-4.372-10.685
			c0-4.227,1.472-7.798,4.416-10.713c2.943-2.914,6.558-4.372,10.843-4.372c4.188,0,7.707,1.424,10.554,4.271
			c2.847,2.848,4.271,6.355,4.271,10.525C588.907,531.338,588.869,532.014,588.792,532.939z"/>
	</g>
</g>
<g>
	<g>
		<g>
			<g>
				<path stroke="#FFFFFF" stroke-width="2" stroke-miterlimit="10" d="M146.051,163.351l0.813-14.021l0.464-10.967l0.058-4.712
					c2.134,0.039,4.016,0.058,5.645,0.058c1.843,0,3.637-0.019,5.383-0.058l-0.202,3.869c0.601-0.775,1.11-1.372,1.527-1.789
					c0.417-0.417,0.926-0.814,1.527-1.192c0.601-0.378,1.222-0.679,1.861-0.902c0.64-0.223,1.357-0.402,2.152-0.538
					s1.629-0.204,2.502-0.204c0.989,0,1.9,0.083,2.734,0.247c0.833,0.165,1.551,0.374,2.153,0.625
					c0.601,0.252,1.125,0.543,1.57,0.873c0.446,0.33,0.838,0.703,1.178,1.12c0.339,0.417,0.731,1.023,1.178,1.818
					c0.854-1.241,1.755-2.182,2.706-2.822c0.95-0.64,2.031-1.11,3.244-1.411c1.211-0.3,2.458-0.451,3.738-0.451
					c1.688,0,3.277,0.243,4.771,0.727c1.493,0.485,2.72,1.324,3.68,2.517c0.96,1.192,1.44,2.739,1.44,4.64
					c0,0.892-0.064,2.24-0.191,4.043s-0.304,4.902-0.53,9.294s-0.348,7.471-0.368,9.236c-1.783-0.039-3.507-0.058-5.172-0.058
					c-2.034,0-4.165,0.02-6.393,0.058c0.195-2.462,0.396-5.551,0.601-9.265c0.206-3.713,0.308-6.288,0.308-7.723
					c0-1.258-0.146-2.196-0.438-2.815c-0.292-0.619-0.666-1.042-1.123-1.268c-0.457-0.226-0.957-0.339-1.501-0.339
					c-0.583,0-1.089,0.108-1.517,0.323c-0.466,0.234-0.875,0.596-1.224,1.085c-0.467,0.645-0.846,1.456-1.137,2.434
					c-0.234,0.763-0.418,1.926-0.554,3.489c-0.136,1.59-0.243,3.685-0.32,6.284l-0.233,7.796c-2.074-0.039-3.943-0.058-5.609-0.058
					c-1.706,0-3.711,0.02-6.016,0.058c0.177-1.726,0.383-4.625,0.619-8.698c0.235-4.073,0.354-6.797,0.354-8.174
					c0-1.164-0.116-2.036-0.349-2.618s-0.558-1.047-0.975-1.396s-0.975-0.523-1.672-0.523c-0.756,0-1.416,0.223-1.979,0.669
					c-0.563,0.446-1.042,1.086-1.44,1.92c-0.397,0.834-0.679,1.983-0.843,3.447c-0.165,1.464-0.315,3.699-0.452,6.705
					c-0.136,3.006-0.223,5.896-0.262,8.669c-2.349-0.039-4.251-0.058-5.708-0.058C150.438,163.292,148.438,163.312,146.051,163.351z
					"/>
				<path stroke="#FFFFFF" d="M226.299,154.717c-0.248,1.144-0.725,3.907-1.43,8.291c-2.211,0.438-4.069,0.729-5.575,0.872
					c-1.506,0.143-3.03,0.214-4.574,0.214c-2.268,0-4.355-0.157-6.261-0.471s-3.55-0.871-4.931-1.67
					c-1.382-0.8-2.54-1.795-3.474-2.985c-0.934-1.19-1.644-2.604-2.13-4.241c-0.486-1.638-0.729-3.323-0.729-5.056
					c0-2.437,0.486-4.822,1.458-7.154c0.972-2.333,2.225-4.156,3.759-5.469c1.534-1.314,3.302-2.247,5.303-2.799
					c2.001-0.552,4.05-0.829,6.146-0.829c2.173,0,4.246,0.253,6.218,0.758c1.973,0.505,3.645,1.386,5.018,2.645
					c1.372,1.258,2.349,2.678,2.93,4.259c0.581,1.583,0.872,3.288,0.872,5.118c0,1.086-0.125,2.297-0.372,3.63l-20.041,0.029
					c-0.02,0.304-0.029,0.579-0.029,0.825c0,2.05,0.733,3.559,2.202,4.527c1.467,0.968,3.259,1.452,5.375,1.452
					c1.258,0,2.691-0.147,4.302-0.443C221.949,155.922,223.936,155.422,226.299,154.717z M208.717,145.483h9.434
					c0.019-0.324,0.029-0.601,0.029-0.829c0-0.991-0.176-1.839-0.529-2.544c-0.353-0.705-0.858-1.219-1.515-1.544
					c-0.658-0.324-1.396-0.486-2.216-0.486c-0.572,0-1.125,0.091-1.658,0.271c-0.534,0.182-1.015,0.448-1.443,0.801
					c-0.429,0.353-0.787,0.757-1.072,1.215c-0.286,0.458-0.496,0.9-0.629,1.33C208.984,144.125,208.851,144.721,208.717,145.483z"/>
				<path stroke="#FFFFFF" d="M229.021,162.808c-0.077-0.839-0.153-1.72-0.229-2.645c-0.077-0.924-0.2-2.196-0.372-3.816
					l-0.229-2.059c1.844,0.725,3.432,1.263,4.763,1.615c1.331,0.353,2.557,0.529,3.679,0.529c0.932,0,1.688-0.085,2.268-0.257
					c0.58-0.171,1.003-0.419,1.27-0.743c0.266-0.324,0.399-0.658,0.399-1c0-0.305-0.1-0.605-0.299-0.901
					c-0.2-0.295-0.651-0.7-1.354-1.215c-1.559-1.144-2.932-2.182-4.12-3.116c-1.188-0.934-2.082-1.763-2.68-2.487
					c-0.599-0.724-1.055-1.505-1.369-2.345c-0.313-0.838-0.47-1.705-0.47-2.601c0-1.582,0.453-3.059,1.358-4.432
					c0.905-1.372,2.239-2.368,4.002-2.987c1.763-0.619,3.912-0.929,6.447-0.929c2.649,0,6.032,0.343,10.149,1.029l0.457,8.005
					c-2.306-0.915-4.526-1.373-6.661-1.373c-1.506,0-2.597,0.155-3.273,0.465c-0.677,0.31-1.015,0.784-1.015,1.422
					c0,0.21,0.038,0.41,0.114,0.6c0.076,0.191,0.215,0.391,0.415,0.601c0.2,0.21,0.448,0.424,0.744,0.643
					c0.295,0.219,1.015,0.729,2.158,1.529c1.144,0.801,2.039,1.458,2.688,1.973c1.067,0.839,1.882,1.615,2.444,2.33
					c0.562,0.715,0.991,1.477,1.286,2.287s0.443,1.663,0.443,2.559c0,1.354-0.329,2.597-0.986,3.731s-1.649,2.083-2.973,2.844
					c-1.325,0.763-2.759,1.291-4.303,1.587c-1.543,0.295-3.135,0.443-4.774,0.443c-1.106,0-2.492-0.096-4.16-0.286
					C233.171,163.617,231.231,163.284,229.021,162.808z"/>
				<path stroke="#FFFFFF" d="M253.899,162.808c-0.077-0.839-0.153-1.72-0.229-2.645c-0.077-0.924-0.2-2.196-0.372-3.816
					l-0.229-2.059c1.844,0.725,3.432,1.263,4.763,1.615c1.331,0.353,2.557,0.529,3.679,0.529c0.932,0,1.688-0.085,2.268-0.257
					c0.58-0.171,1.003-0.419,1.27-0.743c0.266-0.324,0.399-0.658,0.399-1c0-0.305-0.1-0.605-0.299-0.901
					c-0.2-0.295-0.651-0.7-1.354-1.215c-1.559-1.144-2.932-2.182-4.12-3.116c-1.188-0.934-2.082-1.763-2.68-2.487
					c-0.599-0.724-1.055-1.505-1.369-2.345c-0.313-0.838-0.47-1.705-0.47-2.601c0-1.582,0.453-3.059,1.358-4.432
					c0.905-1.372,2.239-2.368,4.002-2.987c1.763-0.619,3.912-0.929,6.447-0.929c2.649,0,6.032,0.343,10.149,1.029l0.457,8.005
					c-2.306-0.915-4.526-1.373-6.661-1.373c-1.506,0-2.597,0.155-3.273,0.465c-0.677,0.31-1.015,0.784-1.015,1.422
					c0,0.21,0.038,0.41,0.114,0.6c0.076,0.191,0.215,0.391,0.415,0.601c0.2,0.21,0.448,0.424,0.744,0.643
					c0.295,0.219,1.015,0.729,2.158,1.529c1.144,0.801,2.039,1.458,2.688,1.973c1.067,0.839,1.882,1.615,2.444,2.33
					c0.562,0.715,0.991,1.477,1.286,2.287s0.443,1.663,0.443,2.559c0,1.354-0.329,2.597-0.986,3.731s-1.649,2.083-2.973,2.844
					c-1.325,0.763-2.759,1.291-4.303,1.587c-1.543,0.295-3.135,0.443-4.774,0.443c-1.106,0-2.492-0.096-4.16-0.286
					C258.049,163.617,256.11,163.284,253.899,162.808z"/>
				<path stroke="#FFFFFF" d="M281.693,142.481c0.362-1.887,0.59-3.188,0.686-3.902c0.095-0.714,0.248-1.834,0.458-3.359
					c5.489-1.201,10.207-1.801,14.152-1.801c2.25,0,4.308,0.253,6.176,0.758s3.326,1.32,4.375,2.444
					c1.048,1.125,1.573,2.735,1.573,4.831c0,1.068-0.143,3.469-0.428,7.205c-0.285,3.736-0.504,8.634-0.656,14.694
					c-1.869-0.038-3.728-0.057-5.578-0.057c-1.792,0-3.7,0.019-5.721,0.057c0.26-2.096,0.548-6.422,0.865-12.979
					c-0.723,0.343-1.289,0.591-1.697,0.743c-0.409,0.153-1.127,0.381-2.153,0.686c-1.026,0.305-1.83,0.563-2.41,0.772
					c-0.58,0.21-1.083,0.477-1.511,0.8c-0.428,0.325-0.732,0.658-0.913,1.001c-0.181,0.343-0.271,0.724-0.271,1.144
					c0,0.648,0.257,1.201,0.772,1.658c0.515,0.458,1.334,0.687,2.458,0.687c0.4,0,0.829-0.033,1.287-0.1s1.086-0.233,1.887-0.5
					c-0.553,1.468-1.21,3.612-1.973,6.433c-1.639,0.267-3.192,0.4-4.66,0.4c-2.363,0-4.331-0.329-5.903-0.986
					c-1.573-0.657-2.783-1.72-3.631-3.188c-0.848-1.467-1.272-2.935-1.272-4.402c0-0.896,0.157-1.772,0.472-2.63
					c0.314-0.857,0.805-1.696,1.472-2.516c0.667-0.819,1.448-1.52,2.343-2.102c0.895-0.581,2.12-1.129,3.672-1.644
					s3.52-1,5.901-1.458c0.991-0.19,1.9-0.396,2.729-0.615c0.829-0.219,1.419-0.41,1.771-0.572c0.353-0.162,0.639-0.353,0.857-0.572
					c0.219-0.219,0.376-0.448,0.472-0.686c0.095-0.238,0.143-0.491,0.143-0.758c0-0.724-0.305-1.281-0.915-1.672
					c-0.61-0.39-1.505-0.586-2.686-0.586C290.561,139.708,286.513,140.633,281.693,142.481z"/>
				<path stroke="#FFFFFF" d="M313.347,166.896c2.458,0.838,4.622,1.424,6.49,1.758c1.868,0.333,3.497,0.5,4.889,0.5
					c1.01,0,1.925-0.11,2.744-0.329c0.819-0.219,1.477-0.491,1.973-0.815s0.919-0.734,1.272-1.229
					c0.353-0.496,0.624-1.048,0.814-1.658c0.19-0.61,0.324-1.315,0.4-2.116c0.076-0.8,0.143-1.905,0.2-3.316
					c-0.743,0.667-1.387,1.201-1.93,1.601c-0.543,0.4-1.215,0.787-2.016,1.158c-0.8,0.372-1.672,0.657-2.616,0.857
					s-1.939,0.3-2.987,0.3c-2.421,0-4.603-0.562-6.547-1.687c-1.944-1.125-3.393-2.697-4.346-4.717
					c-0.953-2.02-1.429-4.203-1.429-6.547c0-2.763,0.514-5.26,1.542-7.49c1.028-2.229,2.499-4.117,4.413-5.66
					c1.914-1.544,4.013-2.611,6.298-3.202c2.286-0.59,4.875-0.886,7.77-0.886c1.656,0,3.537,0.1,5.641,0.3s4.994,0.634,8.669,1.301
					l-0.675,9.434l-0.591,10.349c-0.038,0.743-0.056,1.354-0.056,1.83l-0.226,9.291c-0.038,1.182-0.181,2.306-0.429,3.374
					c-0.21,0.972-0.563,1.877-1.058,2.716c-0.496,0.838-1.105,1.573-1.829,2.202c-0.801,0.686-1.696,1.229-2.687,1.629
					c-1.01,0.419-2.201,0.762-3.573,1.029c-1.486,0.267-3.039,0.4-4.659,0.4c-0.915,0-2.04-0.042-3.373-0.128
					c-1.334-0.086-2.701-0.214-4.102-0.386c-1.401-0.171-2.611-0.353-3.63-0.543c-1.02-0.191-2.31-0.467-3.873-0.829l-0.2-3.773
					C313.613,170.888,313.519,169.316,313.347,166.896z M332.958,142.167c-1.179-0.229-2.234-0.343-3.165-0.343
					c-1.711,0-3.189,0.33-4.435,0.988c-1.246,0.659-2.21,1.643-2.894,2.951c-0.685,1.309-1.026,2.669-1.026,4.082
					c0,1.032,0.18,1.987,0.542,2.865c0.361,0.878,0.96,1.571,1.796,2.077c0.836,0.506,1.72,0.759,2.652,0.759
					c1.369,0,2.585-0.496,3.65-1.49c1.064-0.993,1.796-2.349,2.196-4.068C332.672,148.27,332.9,145.662,332.958,142.167z"/>
				<path stroke="#FFFFFF" d="M374.561,154.717c-0.248,1.144-0.725,3.907-1.43,8.291c-2.211,0.438-4.069,0.729-5.575,0.872
					c-1.506,0.143-3.03,0.214-4.574,0.214c-2.268,0-4.355-0.157-6.261-0.471s-3.55-0.871-4.931-1.67
					c-1.382-0.8-2.54-1.795-3.474-2.985c-0.934-1.19-1.644-2.604-2.13-4.241c-0.486-1.638-0.729-3.323-0.729-5.056
					c0-2.437,0.486-4.822,1.458-7.154c0.972-2.333,2.225-4.156,3.759-5.469c1.534-1.314,3.302-2.247,5.303-2.799
					c2.001-0.552,4.05-0.829,6.146-0.829c2.173,0,4.246,0.253,6.218,0.758c1.973,0.505,3.645,1.386,5.018,2.645
					c1.372,1.258,2.349,2.678,2.93,4.259c0.581,1.583,0.872,3.288,0.872,5.118c0,1.086-0.125,2.297-0.372,3.63l-20.041,0.029
					c-0.02,0.304-0.029,0.579-0.029,0.825c0,2.05,0.733,3.559,2.202,4.527c1.467,0.968,3.259,1.452,5.375,1.452
					c1.258,0,2.691-0.147,4.302-0.443C370.21,155.922,372.197,155.422,374.561,154.717z M356.979,145.483h9.434
					c0.019-0.324,0.029-0.601,0.029-0.829c0-0.991-0.176-1.839-0.529-2.544c-0.353-0.705-0.858-1.219-1.515-1.544
					c-0.658-0.324-1.396-0.486-2.216-0.486c-0.572,0-1.125,0.091-1.658,0.271c-0.534,0.182-1.015,0.448-1.443,0.801
					c-0.429,0.353-0.787,0.757-1.072,1.215c-0.286,0.458-0.496,0.9-0.629,1.33C357.246,144.125,357.112,144.721,356.979,145.483z"/>
			</g>
			<ellipse fill="#FFFFFF" cx="151.857" cy="164.289" rx="6.906" ry="0.955"/>
		</g>
		<ellipse fill="#FFFFFF" cx="170.539" cy="164.289" rx="6.906" ry="0.955"/>
	</g>
	<ellipse fill="#FFFFFF" cx="189.349" cy="164.289" rx="6.907" ry="0.955"/>
</g>
<g>
	<path fill="#ED1C24" d="M1144.731,149.561h-32.197c-0.492-1.627-0.737-3.123-0.737-4.486c0-1.893,0.34-3.748,1.021-5.565h10.789
		c-0.758-4.202-3.123-6.303-7.098-6.303c-2.65,0-4.809,1.127-6.474,3.379c-1.666,2.252-2.498,5.139-2.498,8.659
		c0,3.672,0.804,6.644,2.413,8.915c1.608,2.271,3.719,3.407,6.331,3.407c2.12,0,4.164-1.06,6.133-3.18l12.095,14.537
		c-5.641,4.429-11.906,6.644-18.795,6.644c-8.404,0-15.465-2.82-21.181-8.461c-5.717-5.64-8.574-12.625-8.574-20.953
		c0-8.291,2.886-15.293,8.659-21.01c5.772-5.716,12.861-8.575,21.266-8.575c8.214,0,15.113,2.792,20.698,8.376
		c5.583,5.584,8.375,12.464,8.375,20.641C1144.958,146.418,1144.882,147.743,1144.731,149.561z"/>
</g>
<g>
	<g>
		<g>
			<g>
				<path stroke="#FFFFFF" stroke-width="2" stroke-miterlimit="10" d="M1149.679,165.885l1-17.255l0.571-13.496l0.072-5.799
					c2.625,0.048,4.941,0.072,6.946,0.072c2.268,0,4.476-0.023,6.624-0.072l-0.248,4.761c0.739-0.954,1.366-1.688,1.88-2.202
					c0.513-0.513,1.139-1.002,1.878-1.468c0.74-0.465,1.504-0.835,2.292-1.109c0.787-0.274,1.67-0.495,2.648-0.663
					c0.978-0.167,2.004-0.25,3.078-0.25c1.218,0,2.339,0.102,3.364,0.304c1.026,0.203,1.909,0.46,2.649,0.77
					c0.739,0.311,1.384,0.668,1.933,1.074c0.549,0.406,1.032,0.865,1.45,1.378c0.417,0.513,0.9,1.259,1.449,2.237
					c1.05-1.527,2.16-2.685,3.329-3.473c1.17-0.788,2.5-1.366,3.992-1.736c1.491-0.37,3.024-0.555,4.6-0.555
					c2.076,0,4.033,0.299,5.871,0.895c1.838,0.597,3.348,1.629,4.528,3.097c1.182,1.468,1.772,3.371,1.772,5.709
					c0,1.098-0.079,2.757-0.235,4.976c-0.157,2.22-0.375,6.032-0.652,11.438c-0.277,5.406-0.429,9.195-0.453,11.366
					c-2.193-0.047-4.314-0.072-6.364-0.072c-2.504,0-5.126,0.024-7.867,0.072c0.24-3.031,0.487-6.832,0.74-11.402
					c0.252-4.57,0.379-7.738,0.379-9.504c0-1.548-0.18-2.702-0.539-3.464c-0.358-0.762-0.819-1.282-1.381-1.56
					c-0.563-0.278-1.179-0.417-1.848-0.417c-0.718,0-1.34,0.133-1.866,0.397c-0.574,0.289-1.076,0.734-1.507,1.335
					c-0.574,0.793-1.041,1.792-1.399,2.995c-0.288,0.938-0.515,2.37-0.682,4.294c-0.168,1.958-0.299,4.535-0.395,7.733l-0.286,9.594
					c-2.552-0.047-4.853-0.072-6.903-0.072c-2.099,0-4.566,0.024-7.403,0.072c0.217-2.124,0.472-5.692,0.762-10.704
					c0.289-5.012,0.435-8.365,0.435-10.06c0-1.432-0.143-2.506-0.429-3.222c-0.287-0.716-0.687-1.289-1.2-1.718
					c-0.513-0.43-1.199-0.645-2.058-0.645c-0.931,0-1.743,0.275-2.435,0.823c-0.692,0.549-1.283,1.337-1.772,2.363
					c-0.489,1.026-0.835,2.44-1.038,4.242c-0.203,1.802-0.388,4.553-0.555,8.251c-0.168,3.7-0.275,7.255-0.322,10.668
					c-2.891-0.047-5.232-0.072-7.024-0.072C1155.077,165.813,1152.617,165.837,1149.679,165.885z"/>
				<path stroke="#FFFFFF" d="M1248.434,155.26c-0.306,1.407-0.892,4.808-1.76,10.202c-2.721,0.54-5.008,0.897-6.86,1.073
					s-3.729,0.264-5.629,0.264c-2.791,0-5.359-0.193-7.704-0.58c-2.346-0.387-4.369-1.072-6.069-2.056s-3.125-2.208-4.274-3.673
					c-1.149-1.465-2.022-3.205-2.621-5.22c-0.598-2.015-0.896-4.089-0.896-6.222c0-2.999,0.598-5.934,1.794-8.805
					s2.738-5.114,4.626-6.73s4.063-2.765,6.526-3.444c2.463-0.68,4.983-1.02,7.563-1.02c2.674,0,5.225,0.311,7.652,0.932
					c2.428,0.622,4.485,1.706,6.174,3.254c1.689,1.548,2.891,3.295,3.606,5.242c0.715,1.947,1.073,4.046,1.073,6.297
					c0,1.337-0.153,2.827-0.457,4.468l-24.662,0.035c-0.024,0.374-0.035,0.712-0.035,1.016c0,2.523,0.902,4.38,2.709,5.571
					c1.806,1.191,4.01,1.787,6.613,1.787c1.548,0,3.313-0.181,5.295-0.545C1243.079,156.744,1245.524,156.128,1248.434,155.26z
					 M1226.797,143.896h11.609c0.023-0.398,0.035-0.739,0.035-1.02c0-1.219-0.217-2.263-0.65-3.131
					c-0.435-0.867-1.056-1.5-1.865-1.9c-0.809-0.398-1.718-0.598-2.727-0.598c-0.703,0-1.384,0.112-2.04,0.334
					c-0.657,0.223-1.249,0.551-1.776,0.985c-0.528,0.435-0.968,0.933-1.319,1.496c-0.353,0.563-0.61,1.108-0.774,1.636
					S1226.961,142.958,1226.797,143.896z"/>
				<path stroke="#FFFFFF" d="M1251.783,165.216c-0.094-1.032-0.188-2.116-0.281-3.254c-0.094-1.137-0.246-2.703-0.457-4.697
					l-0.282-2.533c2.271,0.892,4.224,1.554,5.861,1.988c1.639,0.434,3.147,0.651,4.528,0.651c1.146,0,2.077-0.106,2.79-0.317
					c0.714-0.211,1.235-0.516,1.563-0.915c0.328-0.398,0.491-0.809,0.491-1.231c0-0.375-0.123-0.744-0.368-1.108
					c-0.245-0.363-0.801-0.862-1.666-1.495c-1.918-1.407-3.608-2.685-5.07-3.834c-1.462-1.149-2.562-2.169-3.298-3.061
					c-0.736-0.891-1.298-1.853-1.684-2.885c-0.386-1.032-0.579-2.099-0.579-3.202c0-1.946,0.557-3.764,1.671-5.453
					c1.114-1.689,2.756-2.914,4.926-3.677c2.169-0.762,4.813-1.143,7.934-1.143c3.26,0,7.423,0.422,12.489,1.266l0.563,9.851
					c-2.838-1.126-5.57-1.689-8.197-1.689c-1.853,0-3.195,0.191-4.028,0.572c-0.832,0.381-1.249,0.965-1.249,1.75
					c0,0.258,0.047,0.504,0.142,0.739c0.093,0.234,0.264,0.481,0.51,0.739c0.246,0.258,0.551,0.522,0.915,0.792
					c0.363,0.27,1.248,0.897,2.655,1.882c1.407,0.985,2.51,1.794,3.308,2.427c1.313,1.032,2.315,1.988,3.008,2.867
					c0.691,0.88,1.22,1.818,1.583,2.814c0.363,0.998,0.546,2.047,0.546,3.149c0,1.666-0.405,3.196-1.214,4.591
					c-0.81,1.396-2.029,2.563-3.659,3.5s-3.395,1.588-5.295,1.953c-1.899,0.363-3.858,0.545-5.875,0.545
					c-1.36,0-3.066-0.118-5.119-0.352C1256.89,166.213,1254.504,165.803,1251.783,165.216z"/>
				<path stroke="#FFFFFF" d="M1282.397,165.216c-0.094-1.032-0.188-2.116-0.281-3.254c-0.094-1.137-0.246-2.703-0.457-4.697
					l-0.282-2.533c2.271,0.892,4.224,1.554,5.861,1.988c1.639,0.434,3.147,0.651,4.528,0.651c1.146,0,2.077-0.106,2.79-0.317
					c0.714-0.211,1.235-0.516,1.563-0.915c0.328-0.398,0.491-0.809,0.491-1.231c0-0.375-0.123-0.744-0.368-1.108
					c-0.245-0.363-0.801-0.862-1.666-1.495c-1.918-1.407-3.608-2.685-5.07-3.834c-1.462-1.149-2.562-2.169-3.298-3.061
					c-0.736-0.891-1.298-1.853-1.684-2.885c-0.386-1.032-0.579-2.099-0.579-3.202c0-1.946,0.557-3.764,1.671-5.453
					c1.114-1.689,2.756-2.914,4.926-3.677c2.169-0.762,4.813-1.143,7.934-1.143c3.26,0,7.423,0.422,12.489,1.266l0.563,9.851
					c-2.838-1.126-5.57-1.689-8.197-1.689c-1.853,0-3.195,0.191-4.028,0.572c-0.832,0.381-1.249,0.965-1.249,1.75
					c0,0.258,0.047,0.504,0.142,0.739c0.093,0.234,0.264,0.481,0.51,0.739c0.246,0.258,0.551,0.522,0.915,0.792
					c0.363,0.27,1.248,0.897,2.655,1.882c1.407,0.985,2.51,1.794,3.308,2.427c1.313,1.032,2.315,1.988,3.008,2.867
					c0.691,0.88,1.22,1.818,1.583,2.814c0.363,0.998,0.546,2.047,0.546,3.149c0,1.666-0.405,3.196-1.214,4.591
					c-0.81,1.396-2.029,2.563-3.659,3.5s-3.395,1.588-5.295,1.953c-1.899,0.363-3.858,0.545-5.875,0.545
					c-1.36,0-3.066-0.118-5.119-0.352C1287.504,166.213,1285.118,165.803,1282.397,165.216z"/>
				<path stroke="#FFFFFF" d="M1316.602,140.203c0.445-2.322,0.727-3.923,0.844-4.802c0.117-0.88,0.305-2.257,0.563-4.134
					c6.755-1.478,12.56-2.216,17.416-2.216c2.768,0,5.302,0.311,7.601,0.932c2.299,0.622,4.094,1.625,5.384,3.008
					c1.29,1.384,1.936,3.366,1.936,5.946c0,1.314-0.176,4.269-0.527,8.866c-0.351,4.597-0.62,10.625-0.807,18.083
					c-2.3-0.047-4.588-0.07-6.864-0.07c-2.206,0-4.553,0.023-7.04,0.07c0.32-2.58,0.675-7.904,1.064-15.972
					c-0.89,0.422-1.586,0.727-2.089,0.915c-0.503,0.188-1.387,0.47-2.649,0.844c-1.264,0.375-2.253,0.692-2.966,0.95
					c-0.714,0.258-1.334,0.586-1.86,0.985c-0.526,0.399-0.901,0.809-1.123,1.231s-0.333,0.892-0.333,1.407
					c0,0.798,0.316,1.478,0.95,2.041c0.633,0.563,1.641,0.844,3.025,0.844c0.492,0,1.02-0.041,1.583-0.123
					c0.563-0.082,1.337-0.287,2.322-0.616c-0.681,1.806-1.49,4.445-2.428,7.916c-2.018,0.328-3.929,0.492-5.734,0.492
					c-2.909,0-5.33-0.404-7.266-1.213c-1.935-0.81-3.424-2.117-4.468-3.923c-1.044-1.806-1.565-3.612-1.565-5.418
					c0-1.102,0.193-2.181,0.58-3.237c0.387-1.055,0.99-2.087,1.812-3.096c0.819-1.008,1.781-1.87,2.884-2.586
					c1.102-0.715,2.608-1.39,4.519-2.023c1.911-0.633,4.331-1.231,7.263-1.794c1.219-0.234,2.338-0.487,3.358-0.757
					c1.02-0.269,1.746-0.504,2.18-0.704c0.435-0.199,0.786-0.434,1.056-0.704c0.269-0.269,0.463-0.551,0.58-0.844
					c0.117-0.293,0.176-0.604,0.176-0.932c0-0.891-0.375-1.577-1.125-2.058c-0.75-0.48-1.853-0.721-3.306-0.721
					C1327.514,136.79,1322.532,137.928,1316.602,140.203z"/>
				<path stroke="#FFFFFF" d="M1355.555,170.247c3.025,1.032,5.688,1.753,7.986,2.164s4.304,0.616,6.016,0.616
					c1.243,0,2.369-0.135,3.378-0.404c1.008-0.27,1.817-0.604,2.428-1.003c0.609-0.399,1.131-0.903,1.565-1.513
					c0.434-0.61,0.768-1.29,1.003-2.041c0.233-0.751,0.398-1.618,0.492-2.604c0.094-0.985,0.176-2.345,0.246-4.081
					c-0.915,0.821-1.706,1.478-2.375,1.97c-0.668,0.493-1.495,0.968-2.479,1.425c-0.985,0.458-2.059,0.81-3.22,1.056
					s-2.387,0.369-3.676,0.369c-2.979,0-5.665-0.691-8.057-2.076c-2.393-1.383-4.176-3.318-5.348-5.805
					c-1.173-2.486-1.759-5.171-1.759-8.057c0-3.4,0.632-6.473,1.897-9.217s3.076-5.066,5.432-6.966
					c2.354-1.9,4.938-3.213,7.751-3.94c2.812-0.727,5.999-1.09,9.562-1.09c2.038,0,4.353,0.123,6.941,0.369
					c2.59,0.246,6.146,0.78,10.669,1.601l-0.831,11.61l-0.728,12.736c-0.046,0.915-0.069,1.666-0.069,2.251l-0.277,11.434
					c-0.047,1.454-0.223,2.837-0.527,4.151c-0.259,1.196-0.692,2.31-1.302,3.342s-1.36,1.935-2.251,2.709
					c-0.985,0.845-2.088,1.513-3.307,2.005c-1.243,0.516-2.708,0.938-4.397,1.267c-1.829,0.328-3.74,0.493-5.733,0.493
					c-1.126,0-2.509-0.053-4.15-0.158c-1.642-0.106-3.324-0.264-5.048-0.475c-1.725-0.211-3.213-0.434-4.468-0.668
					c-1.254-0.235-2.843-0.575-4.766-1.02l-0.246-4.644C1355.883,175.161,1355.766,173.226,1355.555,170.247z M1379.688,139.815
					c-1.451-0.281-2.749-0.422-3.896-0.422c-2.105,0-3.925,0.405-5.457,1.216c-1.532,0.811-2.72,2.021-3.562,3.631
					c-0.842,1.61-1.263,3.285-1.263,5.023c0,1.27,0.222,2.445,0.666,3.526c0.444,1.082,1.182,1.934,2.211,2.556
					c1.028,0.623,2.116,0.934,3.264,0.934c1.684,0,3.182-0.611,4.491-1.833c1.311-1.222,2.211-2.891,2.702-5.006
					S1379.618,144.117,1379.688,139.815z"/>
				<path stroke="#FFFFFF" d="M1430.886,155.26c-0.306,1.407-0.892,4.808-1.76,10.202c-2.721,0.54-5.008,0.897-6.86,1.073
					s-3.729,0.264-5.629,0.264c-2.791,0-5.359-0.193-7.704-0.58c-2.346-0.387-4.369-1.072-6.069-2.056s-3.125-2.208-4.274-3.673
					c-1.149-1.465-2.022-3.205-2.621-5.22c-0.598-2.015-0.896-4.089-0.896-6.222c0-2.999,0.598-5.934,1.794-8.805
					s2.738-5.114,4.626-6.73s4.063-2.765,6.526-3.444c2.463-0.68,4.983-1.02,7.563-1.02c2.674,0,5.225,0.311,7.652,0.932
					c2.428,0.622,4.485,1.706,6.174,3.254c1.689,1.548,2.891,3.295,3.606,5.242c0.715,1.947,1.073,4.046,1.073,6.297
					c0,1.337-0.153,2.827-0.457,4.468l-24.662,0.035c-0.024,0.374-0.035,0.712-0.035,1.016c0,2.523,0.902,4.38,2.709,5.571
					c1.806,1.191,4.01,1.787,6.613,1.787c1.548,0,3.313-0.181,5.295-0.545C1425.531,156.744,1427.977,156.128,1430.886,155.26z
					 M1409.249,143.896h11.609c0.023-0.398,0.035-0.739,0.035-1.02c0-1.219-0.217-2.263-0.65-3.131
					c-0.435-0.867-1.056-1.5-1.865-1.9c-0.809-0.398-1.718-0.598-2.727-0.598c-0.703,0-1.384,0.112-2.04,0.334
					c-0.657,0.223-1.249,0.551-1.776,0.985c-0.528,0.435-0.968,0.933-1.319,1.496c-0.353,0.563-0.61,1.108-0.774,1.636
					S1409.413,142.958,1409.249,143.896z"/>
			</g>
			<ellipse fill="#FFFFFF" cx="1156.825" cy="167.041" rx="8.499" ry="1.176"/>
		</g>
		<ellipse fill="#FFFFFF" cx="1179.814" cy="167.041" rx="8.499" ry="1.176"/>
	</g>
	<ellipse fill="#FFFFFF" cx="1202.962" cy="167.041" rx="8.5" ry="1.176"/>
</g>
<g>
	<g>
		<g>
			<g>
				<path d="M490.479,622.556l0.572-9.869l0.327-7.72l0.041-3.317c1.502,0.027,2.827,0.041,3.974,0.041
					c1.297,0,2.56-0.014,3.789-0.041l-0.142,2.724c0.423-0.546,0.781-0.966,1.075-1.26c0.293-0.293,0.652-0.573,1.075-0.839
					c0.423-0.267,0.86-0.478,1.311-0.635s0.955-0.283,1.515-0.379s1.147-0.144,1.761-0.144c0.696,0,1.337,0.059,1.924,0.174
					c0.587,0.116,1.092,0.264,1.515,0.44c0.423,0.178,0.792,0.383,1.105,0.614c0.314,0.232,0.59,0.495,0.83,0.788
					c0.238,0.294,0.515,0.721,0.829,1.28c0.601-0.874,1.235-1.536,1.904-1.986c0.668-0.45,1.43-0.781,2.283-0.993
					c0.853-0.212,1.73-0.317,2.631-0.317c1.188,0,2.307,0.171,3.358,0.512c1.051,0.342,1.915,0.932,2.59,1.771
					c0.676,0.84,1.014,1.928,1.014,3.266c0,0.628-0.045,1.577-0.135,2.847s-0.214,3.45-0.373,6.542s-0.245,5.259-0.259,6.501
					c-1.255-0.027-2.468-0.041-3.641-0.041c-1.432,0-2.932,0.014-4.5,0.041c0.138-1.733,0.279-3.907,0.423-6.521
					c0.145-2.614,0.217-4.426,0.217-5.437c0-0.886-0.103-1.546-0.308-1.981c-0.206-0.436-0.469-0.733-0.791-0.893
					c-0.321-0.159-0.674-0.238-1.057-0.238c-0.411,0-0.766,0.076-1.067,0.227c-0.328,0.166-0.616,0.42-0.862,0.765
					c-0.329,0.453-0.596,1.024-0.801,1.713c-0.164,0.536-0.294,1.355-0.39,2.456c-0.096,1.119-0.171,2.594-0.226,4.423l-0.164,5.487
					c-1.459-0.027-2.775-0.041-3.948-0.041c-1.2,0-2.612,0.014-4.235,0.041c0.125-1.215,0.27-3.256,0.436-6.122
					c0.166-2.867,0.249-4.784,0.249-5.754c0-0.819-0.082-1.434-0.246-1.843c-0.164-0.41-0.393-0.737-0.686-0.983
					c-0.294-0.245-0.686-0.368-1.178-0.368c-0.532,0-0.997,0.157-1.392,0.471c-0.396,0.314-0.734,0.765-1.014,1.352
					s-0.478,1.396-0.594,2.427c-0.116,1.03-0.222,2.604-0.318,4.72s-0.157,4.149-0.184,6.102c-1.654-0.027-2.993-0.041-4.018-0.041
					C493.567,622.515,492.16,622.528,490.479,622.556z"/>
				<path d="M546.965,616.479c-0.175,0.805-0.51,2.75-1.006,5.836c-1.557,0.309-2.864,0.513-3.924,0.613
					c-1.06,0.101-2.133,0.151-3.22,0.151c-1.597,0-3.066-0.111-4.407-0.332s-2.499-0.613-3.471-1.176s-1.788-1.264-2.445-2.101
					c-0.658-0.838-1.157-1.833-1.499-2.986c-0.342-1.152-0.513-2.338-0.513-3.559c0-1.715,0.342-3.394,1.026-5.036
					c0.684-1.642,1.566-2.925,2.646-3.85c1.08-0.925,2.324-1.581,3.733-1.97s2.851-0.584,4.326-0.584
					c1.529,0,2.988,0.179,4.377,0.534s2.566,0.976,3.532,1.861c0.966,0.885,1.653,1.885,2.063,2.998s0.614,2.314,0.614,3.602
					c0,0.765-0.087,1.617-0.262,2.556l-14.106,0.021c-0.013,0.214-0.02,0.407-0.02,0.581c0,1.442,0.517,2.505,1.55,3.187
					c1.033,0.681,2.294,1.021,3.783,1.021c0.886,0,1.895-0.104,3.029-0.312C543.903,617.327,545.302,616.975,546.965,616.479z
					 M534.589,609.979h6.641c0.013-0.228,0.02-0.422,0.02-0.583c0-0.697-0.124-1.295-0.372-1.791
					c-0.249-0.496-0.604-0.858-1.066-1.087c-0.463-0.228-0.983-0.342-1.56-0.342c-0.402,0-0.792,0.063-1.167,0.19
					c-0.375,0.128-0.714,0.315-1.016,0.563c-0.302,0.249-0.553,0.533-0.754,0.855s-0.349,0.634-0.443,0.936
					S534.683,609.442,534.589,609.979z"/>
				<path d="M548.881,622.173c-0.054-0.59-0.107-1.21-0.161-1.861c-0.054-0.65-0.141-1.546-0.261-2.686l-0.161-1.449
					c1.298,0.51,2.416,0.889,3.353,1.137s1.8,0.372,2.59,0.372c0.656,0,1.188-0.06,1.596-0.181s0.706-0.295,0.894-0.523
					c0.188-0.228,0.281-0.463,0.281-0.704c0-0.215-0.071-0.426-0.211-0.634c-0.141-0.208-0.458-0.493-0.953-0.855
					c-1.097-0.805-2.063-1.536-2.9-2.193c-0.836-0.657-1.465-1.24-1.886-1.751c-0.421-0.51-0.743-1.06-0.963-1.649
					c-0.221-0.591-0.331-1.201-0.331-1.832c0-1.113,0.319-2.152,0.956-3.118c0.637-0.967,1.576-1.667,2.817-2.104
					c1.241-0.436,2.753-0.654,4.538-0.654c1.864,0,4.246,0.242,7.144,0.725l0.322,5.635c-1.624-0.644-3.187-0.966-4.689-0.966
					c-1.06,0-1.828,0.109-2.304,0.327s-0.714,0.552-0.714,1.001c0,0.147,0.027,0.288,0.081,0.423
					c0.054,0.134,0.151,0.274,0.292,0.422c0.141,0.148,0.315,0.299,0.523,0.453s0.714,0.513,1.52,1.076
					c0.805,0.563,1.435,1.026,1.892,1.389c0.751,0.591,1.325,1.137,1.72,1.641c0.396,0.503,0.698,1.039,0.906,1.609
					s0.312,1.171,0.312,1.801c0,0.953-0.231,1.828-0.694,2.626c-0.463,0.799-1.161,1.466-2.093,2.003
					c-0.933,0.536-1.942,0.908-3.029,1.116c-1.086,0.208-2.207,0.313-3.36,0.313c-0.778,0-1.754-0.067-2.928-0.201
					C551.802,622.743,550.438,622.509,548.881,622.173z"/>
				<path d="M566.393,622.173c-0.054-0.59-0.107-1.21-0.161-1.861c-0.054-0.65-0.141-1.546-0.261-2.686l-0.161-1.449
					c1.298,0.51,2.416,0.889,3.353,1.137s1.8,0.372,2.59,0.372c0.656,0,1.188-0.06,1.596-0.181s0.706-0.295,0.894-0.523
					c0.188-0.228,0.281-0.463,0.281-0.704c0-0.215-0.071-0.426-0.211-0.634c-0.141-0.208-0.458-0.493-0.953-0.855
					c-1.097-0.805-2.063-1.536-2.9-2.193c-0.836-0.657-1.465-1.24-1.886-1.751c-0.421-0.51-0.743-1.06-0.963-1.649
					c-0.221-0.591-0.331-1.201-0.331-1.832c0-1.113,0.319-2.152,0.956-3.118c0.637-0.967,1.576-1.667,2.817-2.104
					c1.241-0.436,2.753-0.654,4.538-0.654c1.864,0,4.246,0.242,7.144,0.725l0.322,5.635c-1.624-0.644-3.187-0.966-4.689-0.966
					c-1.06,0-1.828,0.109-2.304,0.327s-0.714,0.552-0.714,1.001c0,0.147,0.027,0.288,0.081,0.423
					c0.054,0.134,0.151,0.274,0.292,0.422c0.141,0.148,0.315,0.299,0.523,0.453s0.714,0.513,1.52,1.076
					c0.805,0.563,1.435,1.026,1.892,1.389c0.751,0.591,1.325,1.137,1.72,1.641c0.396,0.503,0.698,1.039,0.906,1.609
					s0.312,1.171,0.312,1.801c0,0.953-0.231,1.828-0.694,2.626c-0.463,0.799-1.161,1.466-2.093,2.003
					c-0.933,0.536-1.942,0.908-3.029,1.116c-1.086,0.208-2.207,0.313-3.36,0.313c-0.778,0-1.754-0.067-2.928-0.201
					C569.313,622.743,567.949,622.509,566.393,622.173z"/>
				<path d="M585.957,607.866c0.254-1.328,0.416-2.244,0.483-2.747c0.067-0.503,0.174-1.291,0.322-2.364
					c3.864-0.846,7.184-1.269,9.962-1.269c1.583,0,3.032,0.179,4.347,0.534s2.341,0.929,3.08,1.72
					c0.738,0.792,1.107,1.926,1.107,3.401c0,0.751-0.101,2.441-0.301,5.071c-0.201,2.629-0.354,6.077-0.461,10.343
					c-1.315-0.026-2.624-0.04-3.926-0.04c-1.262,0-2.604,0.014-4.027,0.04c0.183-1.476,0.386-4.521,0.609-9.136
					c-0.509,0.241-0.907,0.416-1.195,0.523c-0.288,0.107-0.793,0.269-1.516,0.482c-0.723,0.215-1.288,0.396-1.696,0.544
					s-0.763,0.335-1.064,0.563c-0.301,0.229-0.515,0.463-0.643,0.705c-0.127,0.241-0.19,0.51-0.19,0.805
					c0,0.456,0.181,0.845,0.543,1.167s0.939,0.483,1.73,0.483c0.282,0,0.583-0.023,0.906-0.07c0.322-0.047,0.765-0.165,1.328-0.353
					c-0.39,1.033-0.852,2.542-1.389,4.527c-1.154,0.188-2.247,0.282-3.28,0.282c-1.664,0-3.048-0.231-4.155-0.694
					s-1.959-1.211-2.556-2.244c-0.597-1.032-0.896-2.065-0.896-3.099c0-0.631,0.11-1.248,0.332-1.852
					c0.221-0.604,0.566-1.193,1.036-1.771s1.019-1.069,1.65-1.479c0.63-0.409,1.492-0.795,2.584-1.157
					c1.093-0.361,2.478-0.704,4.154-1.025c0.698-0.135,1.338-0.278,1.921-0.433c0.583-0.154,0.999-0.289,1.247-0.403
					c0.248-0.113,0.449-0.248,0.603-0.402c0.154-0.153,0.265-0.314,0.332-0.482c0.067-0.168,0.101-0.346,0.101-0.533
					c0-0.51-0.214-0.902-0.644-1.178c-0.429-0.274-1.059-0.412-1.891-0.412C592.198,605.914,589.349,606.564,585.957,607.866z"/>
				<path d="M608.238,625.051c1.73,0.59,3.253,1.003,4.568,1.237c1.314,0.235,2.461,0.353,3.441,0.353
					c0.711,0,1.355-0.077,1.932-0.231s1.04-0.346,1.389-0.573c0.349-0.229,0.647-0.517,0.896-0.865
					c0.248-0.35,0.439-0.738,0.573-1.167c0.134-0.43,0.228-0.926,0.282-1.489s0.101-1.342,0.141-2.335
					c-0.523,0.47-0.976,0.846-1.358,1.127c-0.382,0.282-0.855,0.554-1.418,0.815s-1.177,0.463-1.841,0.604s-1.365,0.211-2.103,0.211
					c-1.704,0-3.24-0.396-4.608-1.187c-1.369-0.792-2.388-1.898-3.059-3.32s-1.006-2.958-1.006-4.608
					c0-1.945,0.362-3.703,1.085-5.272c0.724-1.569,1.759-2.897,3.106-3.984s2.825-1.838,4.434-2.254
					c1.608-0.415,3.432-0.624,5.469-0.624c1.166,0,2.489,0.071,3.971,0.212c1.481,0.141,3.515,0.446,6.102,0.915l-0.475,6.641
					l-0.417,7.285c-0.026,0.523-0.04,0.952-0.04,1.288l-0.158,6.54c-0.027,0.831-0.128,1.623-0.302,2.374
					c-0.147,0.685-0.396,1.321-0.745,1.912c-0.349,0.59-0.778,1.106-1.287,1.549c-0.563,0.483-1.194,0.865-1.892,1.147
					c-0.711,0.295-1.549,0.536-2.515,0.725c-1.046,0.188-2.139,0.281-3.279,0.281c-0.644,0-1.435-0.03-2.374-0.091
					c-0.939-0.06-1.901-0.15-2.888-0.271c-0.986-0.12-1.837-0.248-2.555-0.382c-0.717-0.135-1.626-0.329-2.726-0.584l-0.141-2.656
					C608.425,627.861,608.358,626.755,608.238,625.051z M622.042,607.645c-0.83-0.161-1.573-0.241-2.228-0.241
					c-1.204,0-2.245,0.231-3.122,0.695c-0.876,0.464-1.555,1.156-2.037,2.077c-0.481,0.921-0.722,1.879-0.722,2.873
					c0,0.727,0.127,1.398,0.381,2.017c0.254,0.619,0.676,1.106,1.264,1.463c0.588,0.355,1.211,0.534,1.867,0.534
					c0.963,0,1.82-0.35,2.569-1.049c0.749-0.699,1.264-1.653,1.545-2.863C621.84,611.94,622.001,610.104,622.042,607.645z"/>
				<path d="M651.325,616.479c-0.175,0.805-0.51,2.75-1.006,5.836c-1.557,0.309-2.864,0.513-3.924,0.613
					c-1.06,0.101-2.133,0.151-3.22,0.151c-1.597,0-3.066-0.111-4.407-0.332s-2.499-0.613-3.471-1.176s-1.788-1.264-2.445-2.101
					c-0.658-0.838-1.157-1.833-1.499-2.986c-0.342-1.152-0.513-2.338-0.513-3.559c0-1.715,0.342-3.394,1.026-5.036
					c0.684-1.642,1.566-2.925,2.646-3.85c1.08-0.925,2.324-1.581,3.733-1.97s2.851-0.584,4.326-0.584
					c1.529,0,2.988,0.179,4.377,0.534s2.566,0.976,3.532,1.861c0.966,0.885,1.653,1.885,2.063,2.998s0.614,2.314,0.614,3.602
					c0,0.765-0.087,1.617-0.262,2.556l-14.106,0.021c-0.013,0.214-0.02,0.407-0.02,0.581c0,1.442,0.517,2.505,1.55,3.187
					c1.033,0.681,2.294,1.021,3.783,1.021c0.886,0,1.895-0.104,3.029-0.312C648.263,617.327,649.662,616.975,651.325,616.479z
					 M638.949,609.979h6.641c0.013-0.228,0.02-0.422,0.02-0.583c0-0.697-0.124-1.295-0.372-1.791
					c-0.249-0.496-0.604-0.858-1.066-1.087c-0.463-0.228-0.983-0.342-1.56-0.342c-0.402,0-0.792,0.063-1.167,0.19
					c-0.375,0.128-0.714,0.315-1.016,0.563c-0.302,0.249-0.553,0.533-0.754,0.855s-0.349,0.634-0.443,0.936
					S639.043,609.442,638.949,609.979z"/>
			</g>
		</g>
	</g>
</g>
<g>
	<path fill="#74D0F0" d="M903.635,488.355c0-14.487-6.248-26.231-13.955-26.231c-7.708,0-13.957,11.744-13.957,26.231
		c0,14.485,13.957,26.229,13.957,26.229S903.635,502.841,903.635,488.355z"/>
	<path fill="#74D0F0" d="M936.52,519.568c10.242-10.243,14.129-22.966,8.678-28.415c-5.45-5.451-18.172-1.564-28.416,8.678
		c-10.242,10.244-8.678,28.416-8.678,28.416S926.275,529.812,936.52,519.568z"/>
	<path fill="#74D0F0" d="M916.678,562.432c10.242,10.243,22.965,14.129,28.416,8.679c5.449-5.449,1.564-18.172-8.68-28.416
		c-10.242-10.242-28.416-8.679-28.416-8.679S906.434,552.187,916.678,562.432z"/>
	<path fill="#74D0F0" d="M863.188,499.165c-10.244-10.244-22.966-14.129-28.416-8.68c-5.45,5.451-1.563,18.174,8.679,28.416
		c10.244,10.244,28.416,8.68,28.416,8.68S873.432,509.408,863.188,499.165z"/>
	<path fill="#74D0F0" d="M843.555,542.214c-10.244,10.244-14.129,22.967-8.679,28.417s18.173,1.563,28.415-8.679
		c10.244-10.244,8.68-28.416,8.68-28.416S853.797,531.971,843.555,542.214z"/>
	<path fill="#74D0F0" d="M875.723,573.772c0,14.484,6.249,26.229,13.957,26.229c7.707,0,13.955-11.744,13.955-26.229
		c0-14.488-13.955-26.232-13.955-26.232S875.723,559.284,875.723,573.772z"/>
	<g>
		<path fill="#ED1C24" d="M905.112,532.94h-16.417c-0.251-0.829-0.377-1.592-0.377-2.287c0-0.965,0.174-1.911,0.521-2.838h5.502
			c-0.387-2.143-1.593-3.214-3.619-3.214c-1.352,0-2.452,0.575-3.301,1.724c-0.85,1.148-1.274,2.62-1.274,4.415
			c0,1.872,0.409,3.388,1.23,4.546c0.82,1.158,1.896,1.737,3.229,1.737c1.081,0,2.123-0.54,3.127-1.621l6.167,7.412
			c-2.877,2.258-6.07,3.388-9.584,3.388c-4.285,0-7.885-1.438-10.8-4.314s-4.372-6.438-4.372-10.685
			c0-4.227,1.472-7.798,4.416-10.713c2.943-2.914,6.558-4.372,10.843-4.372c4.188,0,7.706,1.424,10.554,4.271
			c2.848,2.848,4.271,6.355,4.271,10.525C905.229,531.339,905.189,532.015,905.112,532.94z"/>
	</g>
</g>
<g>
	<g>
		<g>
			<g>
				<path stroke="#FFFFFF" stroke-width="2" stroke-miterlimit="10" d="M806.8,622.557l0.572-9.869l0.327-7.72l0.041-3.317
					c1.502,0.027,2.826,0.041,3.973,0.041c1.297,0,2.561-0.014,3.789-0.041l-0.142,2.724c0.423-0.546,0.781-0.966,1.075-1.26
					c0.293-0.293,0.651-0.573,1.074-0.839c0.423-0.267,0.859-0.478,1.311-0.635s0.955-0.283,1.515-0.379s1.147-0.144,1.761-0.144
					c0.697,0,1.338,0.059,1.925,0.174c0.587,0.116,1.092,0.264,1.515,0.44c0.424,0.178,0.792,0.383,1.105,0.614
					c0.314,0.232,0.591,0.495,0.83,0.788c0.238,0.294,0.515,0.721,0.829,1.28c0.601-0.874,1.235-1.536,1.904-1.986
					s1.43-0.781,2.283-0.993c0.853-0.212,1.729-0.317,2.631-0.317c1.188,0,2.308,0.171,3.358,0.512
					c1.051,0.342,1.914,0.932,2.59,1.771s1.014,1.928,1.014,3.266c0,0.628-0.045,1.577-0.135,2.847s-0.215,3.45-0.373,6.542
					s-0.245,5.259-0.259,6.501c-1.255-0.027-2.468-0.041-3.641-0.041c-1.432,0-2.932,0.014-4.5,0.041
					c0.138-1.733,0.278-3.907,0.423-6.521c0.146-2.614,0.218-4.426,0.218-5.437c0-0.886-0.103-1.546-0.308-1.981
					c-0.206-0.436-0.469-0.733-0.791-0.893c-0.321-0.159-0.674-0.238-1.057-0.238c-0.41,0-0.766,0.076-1.067,0.227
					c-0.328,0.166-0.616,0.42-0.862,0.765c-0.328,0.453-0.596,1.024-0.801,1.713c-0.164,0.536-0.293,1.355-0.389,2.456
					c-0.096,1.119-0.172,2.594-0.227,4.423l-0.164,5.487c-1.459-0.027-2.775-0.041-3.947-0.041c-1.201,0-2.612,0.014-4.235,0.041
					c0.124-1.215,0.271-3.256,0.437-6.122c0.165-2.867,0.248-4.784,0.248-5.754c0-0.819-0.082-1.434-0.246-1.843
					c-0.163-0.41-0.393-0.737-0.686-0.983c-0.293-0.245-0.686-0.368-1.178-0.368c-0.531,0-0.996,0.157-1.392,0.471
					c-0.396,0.314-0.733,0.765-1.014,1.352s-0.478,1.396-0.594,2.427c-0.116,1.03-0.222,2.604-0.317,4.72s-0.158,4.149-0.185,6.102
					c-1.653-0.027-2.993-0.041-4.018-0.041C809.888,622.516,808.48,622.529,806.8,622.557z"/>
				<path stroke="#FFFFFF" d="M863.286,616.479c-0.175,0.805-0.511,2.75-1.007,5.836c-1.557,0.309-2.863,0.513-3.924,0.613
					c-1.06,0.101-2.133,0.151-3.219,0.151c-1.598,0-3.066-0.111-4.408-0.332c-1.341-0.221-2.498-0.613-3.471-1.176
					s-1.787-1.264-2.445-2.101c-0.657-0.838-1.156-1.833-1.498-2.986c-0.343-1.152-0.514-2.338-0.514-3.559
					c0-1.715,0.342-3.394,1.026-5.036c0.685-1.642,1.565-2.925,2.646-3.85s2.324-1.581,3.733-1.97s2.851-0.584,4.326-0.584
					c1.529,0,2.988,0.179,4.377,0.534s2.565,0.976,3.532,1.861c0.965,0.885,1.652,1.885,2.063,2.998
					c0.408,1.113,0.613,2.314,0.613,3.602c0,0.765-0.088,1.617-0.262,2.556l-14.106,0.021c-0.013,0.214-0.021,0.407-0.021,0.581
					c0,1.442,0.518,2.505,1.551,3.187c1.032,0.681,2.293,1.021,3.782,1.021c0.886,0,1.896-0.104,3.028-0.312
					C860.224,617.328,861.623,616.976,863.286,616.479z M850.91,609.979h6.641c0.014-0.228,0.02-0.422,0.02-0.583
					c0-0.697-0.123-1.295-0.371-1.791c-0.249-0.496-0.604-0.858-1.066-1.087c-0.463-0.228-0.983-0.342-1.561-0.342
					c-0.402,0-0.791,0.063-1.167,0.19c-0.376,0.128-0.714,0.315-1.017,0.563c-0.301,0.249-0.553,0.533-0.754,0.855
					s-0.35,0.634-0.443,0.936S851.004,609.443,850.91,609.979z"/>
				<path stroke="#FFFFFF" d="M865.202,622.174c-0.054-0.59-0.107-1.21-0.161-1.861c-0.054-0.65-0.141-1.546-0.262-2.686
					l-0.16-1.449c1.298,0.51,2.415,0.889,3.352,1.137c0.938,0.248,1.801,0.372,2.59,0.372c0.656,0,1.188-0.06,1.597-0.181
					s0.706-0.295,0.894-0.523c0.188-0.228,0.281-0.463,0.281-0.704c0-0.215-0.07-0.426-0.211-0.634s-0.459-0.493-0.953-0.855
					c-1.098-0.805-2.063-1.536-2.9-2.193c-0.836-0.657-1.465-1.24-1.886-1.751c-0.421-0.51-0.743-1.06-0.964-1.649
					c-0.221-0.591-0.33-1.201-0.33-1.832c0-1.113,0.318-2.152,0.955-3.118c0.637-0.967,1.576-1.667,2.818-2.104
					c1.24-0.436,2.753-0.654,4.537-0.654c1.864,0,4.246,0.242,7.144,0.725l0.322,5.635c-1.624-0.644-3.187-0.966-4.688-0.966
					c-1.061,0-1.828,0.109-2.305,0.327s-0.715,0.552-0.715,1.001c0,0.147,0.027,0.288,0.081,0.423
					c0.054,0.134,0.151,0.274,0.292,0.422c0.141,0.148,0.314,0.299,0.523,0.453c0.207,0.154,0.714,0.513,1.52,1.076
					c0.805,0.563,1.435,1.026,1.891,1.389c0.752,0.591,1.325,1.137,1.721,1.641c0.396,0.503,0.697,1.039,0.906,1.609
					c0.207,0.57,0.312,1.171,0.312,1.801c0,0.953-0.231,1.828-0.694,2.626c-0.463,0.799-1.16,1.466-2.093,2.003
					c-0.933,0.536-1.942,0.908-3.028,1.116c-1.087,0.208-2.207,0.313-3.361,0.313c-0.777,0-1.754-0.067-2.928-0.201
					C868.123,622.744,866.758,622.51,865.202,622.174z"/>
				<path stroke="#FFFFFF" d="M882.713,622.174c-0.053-0.59-0.107-1.21-0.16-1.861c-0.055-0.65-0.141-1.546-0.262-2.686
					l-0.161-1.449c1.298,0.51,2.415,0.889,3.353,1.137s1.801,0.372,2.59,0.372c0.656,0,1.188-0.06,1.596-0.181
					s0.707-0.295,0.895-0.523c0.188-0.228,0.281-0.463,0.281-0.704c0-0.215-0.071-0.426-0.211-0.634
					c-0.141-0.208-0.459-0.493-0.953-0.855c-1.098-0.805-2.064-1.536-2.9-2.193s-1.465-1.24-1.887-1.751
					c-0.421-0.51-0.742-1.06-0.963-1.649c-0.221-0.591-0.331-1.201-0.331-1.832c0-1.113,0.319-2.152,0.956-3.118
					c0.637-0.967,1.576-1.667,2.817-2.104c1.241-0.436,2.753-0.654,4.538-0.654c1.863,0,4.246,0.242,7.143,0.725l0.322,5.635
					c-1.623-0.644-3.186-0.966-4.688-0.966c-1.06,0-1.828,0.109-2.304,0.327c-0.477,0.218-0.715,0.552-0.715,1.001
					c0,0.147,0.027,0.288,0.08,0.423c0.055,0.134,0.151,0.274,0.293,0.422c0.141,0.148,0.314,0.299,0.522,0.453
					s0.714,0.513,1.52,1.076c0.805,0.563,1.435,1.026,1.892,1.389c0.751,0.591,1.324,1.137,1.721,1.641
					c0.395,0.503,0.697,1.039,0.905,1.609s0.312,1.171,0.312,1.801c0,0.953-0.23,1.828-0.693,2.626
					c-0.463,0.799-1.161,1.466-2.094,2.003c-0.932,0.536-1.941,0.908-3.028,1.116s-2.206,0.313-3.36,0.313
					c-0.778,0-1.754-0.067-2.928-0.201C885.635,622.744,884.27,622.51,882.713,622.174z"/>
				<path stroke="#FFFFFF" d="M902.277,607.867c0.255-1.328,0.416-2.244,0.483-2.747s0.174-1.291,0.321-2.364
					c3.864-0.846,7.185-1.269,9.963-1.269c1.582,0,3.031,0.179,4.347,0.534s2.341,0.929,3.079,1.72
					c0.738,0.792,1.107,1.926,1.107,3.401c0,0.751-0.101,2.441-0.301,5.071c-0.201,2.629-0.355,6.077-0.462,10.343
					c-1.315-0.026-2.624-0.04-3.927-0.04c-1.262,0-2.604,0.014-4.026,0.04c0.183-1.476,0.386-4.521,0.608-9.136
					c-0.508,0.241-0.906,0.416-1.194,0.523s-0.793,0.269-1.516,0.482c-0.723,0.215-1.288,0.396-1.696,0.544
					s-0.763,0.335-1.064,0.563c-0.301,0.229-0.515,0.463-0.643,0.705c-0.127,0.241-0.189,0.51-0.189,0.805
					c0,0.456,0.181,0.845,0.543,1.167s0.939,0.483,1.73,0.483c0.281,0,0.584-0.023,0.906-0.07c0.321-0.047,0.764-0.165,1.328-0.353
					c-0.391,1.033-0.853,2.542-1.389,4.527c-1.154,0.188-2.248,0.282-3.281,0.282c-1.663,0-3.048-0.231-4.154-0.694
					c-1.107-0.463-1.959-1.211-2.557-2.244c-0.597-1.032-0.895-2.065-0.895-3.099c0-0.631,0.109-1.248,0.332-1.852
					c0.221-0.604,0.566-1.193,1.035-1.771s1.02-1.069,1.65-1.479c0.629-0.409,1.491-0.795,2.584-1.157
					c1.094-0.361,2.478-0.704,4.154-1.025c0.697-0.135,1.338-0.278,1.921-0.433s0.999-0.289,1.247-0.403
					c0.248-0.113,0.449-0.248,0.604-0.402c0.154-0.153,0.265-0.314,0.332-0.482c0.066-0.168,0.1-0.346,0.1-0.533
					c0-0.51-0.214-0.902-0.643-1.178c-0.43-0.274-1.06-0.412-1.891-0.412C908.52,605.915,905.67,606.565,902.277,607.867z"/>
				<path stroke="#FFFFFF" d="M924.559,625.052c1.73,0.59,3.253,1.003,4.568,1.237c1.314,0.235,2.461,0.353,3.44,0.353
					c0.711,0,1.354-0.077,1.932-0.231s1.04-0.346,1.389-0.573c0.349-0.229,0.647-0.517,0.896-0.865
					c0.248-0.35,0.439-0.738,0.573-1.167c0.134-0.43,0.228-0.926,0.282-1.489c0.053-0.563,0.101-1.342,0.141-2.335
					c-0.523,0.47-0.977,0.846-1.358,1.127c-0.382,0.282-0.854,0.554-1.419,0.815c-0.563,0.262-1.177,0.463-1.841,0.604
					s-1.365,0.211-2.103,0.211c-1.704,0-3.24-0.396-4.608-1.187c-1.368-0.792-2.388-1.898-3.06-3.32
					c-0.67-1.422-1.006-2.958-1.006-4.608c0-1.945,0.362-3.703,1.086-5.272c0.725-1.569,1.76-2.897,3.106-3.984
					s2.825-1.838,4.434-2.254c1.608-0.415,3.432-0.624,5.47-0.624c1.165,0,2.488,0.071,3.971,0.212
					c1.48,0.141,3.515,0.446,6.102,0.915l-0.475,6.641l-0.417,7.285c-0.026,0.523-0.04,0.952-0.04,1.288l-0.158,6.54
					c-0.027,0.831-0.127,1.623-0.302,2.374c-0.147,0.685-0.396,1.321-0.745,1.912c-0.348,0.59-0.777,1.106-1.287,1.549
					c-0.563,0.483-1.193,0.865-1.891,1.147c-0.711,0.295-1.549,0.536-2.516,0.725c-1.047,0.188-2.139,0.281-3.279,0.281
					c-0.645,0-1.436-0.03-2.374-0.091c-0.938-0.06-1.901-0.15-2.888-0.271c-0.986-0.12-1.838-0.248-2.555-0.382
					c-0.718-0.135-1.627-0.329-2.727-0.584l-0.141-2.656C924.746,627.862,924.68,626.756,924.559,625.052z M938.362,607.646
					c-0.83-0.161-1.573-0.241-2.228-0.241c-1.205,0-2.245,0.231-3.122,0.695c-0.876,0.464-1.556,1.156-2.037,2.077
					s-0.722,1.879-0.722,2.873c0,0.727,0.127,1.398,0.381,2.017c0.254,0.619,0.676,1.106,1.264,1.463
					c0.589,0.355,1.211,0.534,1.867,0.534c0.963,0,1.82-0.35,2.569-1.049s1.265-1.653,1.546-2.863
					C938.161,611.941,938.322,610.105,938.362,607.646z"/>
				<path stroke="#FFFFFF" d="M967.646,616.479c-0.176,0.805-0.511,2.75-1.007,5.836c-1.557,0.309-2.864,0.513-3.924,0.613
					s-2.134,0.151-3.22,0.151c-1.597,0-3.066-0.111-4.407-0.332s-2.499-0.613-3.472-1.176s-1.787-1.264-2.444-2.101
					c-0.657-0.838-1.157-1.833-1.499-2.986c-0.342-1.152-0.514-2.338-0.514-3.559c0-1.715,0.342-3.394,1.027-5.036
					c0.684-1.642,1.565-2.925,2.646-3.85c1.079-0.925,2.324-1.581,3.733-1.97c1.408-0.389,2.85-0.584,4.326-0.584
					c1.529,0,2.988,0.179,4.377,0.534s2.565,0.976,3.531,1.861c0.966,0.885,1.653,1.885,2.063,2.998s0.613,2.314,0.613,3.602
					c0,0.765-0.087,1.617-0.262,2.556l-14.105,0.021c-0.014,0.214-0.021,0.407-0.021,0.581c0,1.442,0.517,2.505,1.55,3.187
					c1.033,0.681,2.294,1.021,3.783,1.021c0.885,0,1.895-0.104,3.028-0.312S965.982,616.976,967.646,616.479z M955.27,609.979h6.641
					c0.014-0.228,0.021-0.422,0.021-0.583c0-0.697-0.124-1.295-0.372-1.791s-0.604-0.858-1.066-1.087
					c-0.463-0.228-0.982-0.342-1.56-0.342c-0.402,0-0.792,0.063-1.167,0.19c-0.376,0.128-0.715,0.315-1.017,0.563
					c-0.302,0.249-0.554,0.533-0.755,0.855s-0.349,0.634-0.442,0.936S955.363,609.443,955.27,609.979z"/>
			</g>
			<ellipse fill="#FFFFFF" cx="810.887" cy="623.217" rx="4.861" ry="0.672"/>
		</g>
		<ellipse fill="#FFFFFF" cx="824.036" cy="623.217" rx="4.861" ry="0.672"/>
	</g>
	<ellipse fill="#FFFFFF" cx="837.277" cy="623.217" rx="4.862" ry="0.672"/>
</g>
<rect x="740" y="0" fill="#FFFFFF" fill-opacity="0.5" width="300" height="400"/>
<rect x="740.753" y="420" fill="#FFFFFF" fill-opacity="0.5" width="300" height="400"/>
<circle fill="none" stroke="#000000" stroke-width="4" stroke-miterlimit="10" cx="1679.187" cy="199.831" r="168.478"/>
</svg>
